<svg width="125" height="173" viewBox="0 0 125 173" fill="none" xmlns="http://www.w3.org/2000/svg">
<g filter="url(#filter0_dddd_61_268)">
<path d="M25.2 157C21.7333 157 19 156.067 17 154.2C15.1333 152.2 14.2 149.533 14.2 146.2C14.2 142.733 15.1333 140.133 17 138.4C19 136.667 21.7333 135.8 25.2 135.8H47.6V37.6H60L30.6 55.4C28.0667 56.8667 25.6667 57.4667 23.4 57.2C21.2667 56.8 19.4 55.8667 17.8 54.4C16.3333 52.8 15.3333 50.9333 14.8 48.8C14.2667 46.6667 14.4 44.5333 15.2 42.4C16.1333 40.1333 17.8667 38.2667 20.4 36.8L48 20.2C50.6667 18.6 53.3333 17.2667 56 16.2C58.6667 15 61.1333 14.4 63.4 14.4C66.2 14.4 68.5333 15.2 70.4 16.8C72.2667 18.2667 73.2 20.7333 73.2 24.2V135.8H93.6C97.0667 135.8 99.7333 136.667 101.6 138.4C103.6 140.133 104.6 142.733 104.6 146.2C104.6 149.667 103.6 152.333 101.6 154.2C99.7333 156.067 97.0667 157 93.6 157H25.2Z" fill="#101549"/>
</g>
<defs>
<filter id="filter0_dddd_61_268" x="0" y="0.400024" width="124.6" height="172.6" filterUnits="userSpaceOnUse" color-interpolation-filters="sRGB">
<feFlood flood-opacity="0" result="BackgroundImageFix"/>
<feColorMatrix in="SourceAlpha" type="matrix" values="0 0 0 0 0 0 0 0 0 0 0 0 0 0 0 0 0 0 127 0" result="hardAlpha"/>
<feOffset dx="8" dy="4"/>
<feGaussianBlur stdDeviation="6"/>
<feComposite in2="hardAlpha" operator="out"/>
<feColorMatrix type="matrix" values="0 0 0 0 0.0431373 0 0 0 0 0.0509804 0 0 0 0 0.152941 0 0 0 0.25 0"/>
<feBlend mode="normal" in2="BackgroundImageFix" result="effect1_dropShadow_61_268"/>
<feColorMatrix in="SourceAlpha" type="matrix" values="0 0 0 0 0 0 0 0 0 0 0 0 0 0 0 0 0 0 127 0" result="hardAlpha"/>
<feOffset dx="1" dy="1"/>
<feGaussianBlur stdDeviation="1"/>
<feComposite in2="hardAlpha" operator="out"/>
<feColorMatrix type="matrix" values="0 0 0 0 0.0431373 0 0 0 0 0.0509804 0 0 0 0 0.152941 0 0 0 0.25 0"/>
<feBlend mode="normal" in2="effect1_dropShadow_61_268" result="effect2_dropShadow_61_268"/>
<feColorMatrix in="SourceAlpha" type="matrix" values="0 0 0 0 0 0 0 0 0 0 0 0 0 0 0 0 0 0 127 0" result="hardAlpha"/>
<feOffset dx="-2" dy="-2"/>
<feGaussianBlur stdDeviation="1"/>
<feComposite in2="hardAlpha" operator="out"/>
<feColorMatrix type="matrix" values="0 0 0 0 1 0 0 0 0 1 0 0 0 0 1 0 0 0 0.05 0"/>
<feBlend mode="normal" in2="effect2_dropShadow_61_268" result="effect3_dropShadow_61_268"/>
<feColorMatrix in="SourceAlpha" type="matrix" values="0 0 0 0 0 0 0 0 0 0 0 0 0 0 0 0 0 0 127 0" result="hardAlpha"/>
<feOffset dx="-6" dy="-6"/>
<feGaussianBlur stdDeviation="4"/>
<feComposite in2="hardAlpha" operator="out"/>
<feColorMatrix type="matrix" values="0 0 0 0 1 0 0 0 0 1 0 0 0 0 1 0 0 0 0.1 0"/>
<feBlend mode="normal" in2="effect3_dropShadow_61_268" result="effect4_dropShadow_61_268"/>
<feBlend mode="normal" in="SourceGraphic" in2="effect4_dropShadow_61_268" result="shape"/>
</filter>
</defs>
</svg>
