<svg width="136" height="173" viewBox="0 0 136 173" fill="none" xmlns="http://www.w3.org/2000/svg">
<g filter="url(#filter0_dddd_61_274)">
<path d="M30.6 157C26.3333 157 23.2 156.067 21.2 154.2C19.3333 152.2 18.4 149.333 18.4 145.6C18.4 143.333 19 141.133 20.2 139C21.4 136.867 23.1333 134.6 25.4 132.2L65.6 89.4C71.7333 83 76.1333 77.2 78.8 72C81.4667 66.6667 82.8 61.3333 82.8 56C82.8 49.3333 80.6667 44.2667 76.4 40.8C72.2667 37.3333 66.2 35.6 58.2 35.6C53.6667 35.6 49.1333 36.2667 44.6 37.6C40.0667 38.8 35.4667 40.9333 30.8 44C28.4 45.6 26.1333 46.2667 24 46C22 45.7333 20.2 44.8667 18.6 43.4C17.1333 41.9333 16.1333 40.1333 15.6 38C15.0667 35.8667 15.1333 33.7333 15.8 31.6C16.6 29.3333 18.2 27.4 20.6 25.8C26.3333 21.9333 32.7333 19 39.8 17C47 15 54.2 14 61.4 14C71.5333 14 80.0667 15.5333 87 18.6C93.9333 21.6667 99.2 26.1333 102.8 32C106.4 37.8667 108.2 45 108.2 53.4C108.2 59 107.267 64.4667 105.4 69.8C103.667 75.1333 100.933 80.5333 97.2 86C93.6 91.4667 88.8667 97.2667 83 103.4L45.4 142.6V135.8H104.2C107.8 135.8 110.533 136.667 112.4 138.4C114.267 140.133 115.2 142.733 115.2 146.2C115.2 149.667 114.267 152.333 112.4 154.2C110.533 156.067 107.8 157 104.2 157H30.6Z" fill="#101549"/>
</g>
<defs>
<filter id="filter0_dddd_61_274" x="0.799805" y="0" width="134.4" height="173" filterUnits="userSpaceOnUse" color-interpolation-filters="sRGB">
<feFlood flood-opacity="0" result="BackgroundImageFix"/>
<feColorMatrix in="SourceAlpha" type="matrix" values="0 0 0 0 0 0 0 0 0 0 0 0 0 0 0 0 0 0 127 0" result="hardAlpha"/>
<feOffset dx="8" dy="4"/>
<feGaussianBlur stdDeviation="6"/>
<feComposite in2="hardAlpha" operator="out"/>
<feColorMatrix type="matrix" values="0 0 0 0 0.0431373 0 0 0 0 0.0509804 0 0 0 0 0.152941 0 0 0 0.25 0"/>
<feBlend mode="normal" in2="BackgroundImageFix" result="effect1_dropShadow_61_274"/>
<feColorMatrix in="SourceAlpha" type="matrix" values="0 0 0 0 0 0 0 0 0 0 0 0 0 0 0 0 0 0 127 0" result="hardAlpha"/>
<feOffset dx="1" dy="1"/>
<feGaussianBlur stdDeviation="1"/>
<feComposite in2="hardAlpha" operator="out"/>
<feColorMatrix type="matrix" values="0 0 0 0 0.0431373 0 0 0 0 0.0509804 0 0 0 0 0.152941 0 0 0 0.25 0"/>
<feBlend mode="normal" in2="effect1_dropShadow_61_274" result="effect2_dropShadow_61_274"/>
<feColorMatrix in="SourceAlpha" type="matrix" values="0 0 0 0 0 0 0 0 0 0 0 0 0 0 0 0 0 0 127 0" result="hardAlpha"/>
<feOffset dx="-2" dy="-2"/>
<feGaussianBlur stdDeviation="1"/>
<feComposite in2="hardAlpha" operator="out"/>
<feColorMatrix type="matrix" values="0 0 0 0 1 0 0 0 0 1 0 0 0 0 1 0 0 0 0.05 0"/>
<feBlend mode="normal" in2="effect2_dropShadow_61_274" result="effect3_dropShadow_61_274"/>
<feColorMatrix in="SourceAlpha" type="matrix" values="0 0 0 0 0 0 0 0 0 0 0 0 0 0 0 0 0 0 127 0" result="hardAlpha"/>
<feOffset dx="-6" dy="-6"/>
<feGaussianBlur stdDeviation="4"/>
<feComposite in2="hardAlpha" operator="out"/>
<feColorMatrix type="matrix" values="0 0 0 0 1 0 0 0 0 1 0 0 0 0 1 0 0 0 0.1 0"/>
<feBlend mode="normal" in2="effect3_dropShadow_61_274" result="effect4_dropShadow_61_274"/>
<feBlend mode="normal" in="SourceGraphic" in2="effect4_dropShadow_61_274" result="shape"/>
</filter>
</defs>
</svg>
