<svg width="136" height="175" viewBox="0 0 136 175" fill="none" xmlns="http://www.w3.org/2000/svg">
<g filter="url(#filter0_dddd_61_276)">
<path d="M64.2 159C57 159 49.5333 158.067 41.8 156.2C34.0667 154.333 27.3333 151.533 21.6 147.8C18.9333 146.067 17.1333 144.067 16.2 141.8C15.2667 139.533 15 137.4 15.4 135.4C15.9333 133.267 16.9333 131.467 18.4 130C20 128.533 21.9333 127.667 24.2 127.4C26.6 127.133 29.2 127.733 32 129.2C37.4667 132.133 42.7333 134.267 47.8 135.6C52.8667 136.8 58.0667 137.4 63.4 137.4C69.2667 137.4 74.2 136.6 78.2 135C82.2 133.4 85.2 131 87.2 127.8C89.3333 124.6 90.4 120.733 90.4 116.2C90.4 109.533 88.1333 104.6 83.6 101.4C79.2 98.0667 72.7333 96.4 64.2 96.4H51.4C47.6667 96.4 44.8 95.4667 42.8 93.6C40.9333 91.7333 40 89.1333 40 85.8C40 82.4667 40.9333 79.8667 42.8 78C44.8 76.1333 47.6667 75.2 51.4 75.2H61.8C66.8667 75.2 71.2 74.4 74.8 72.8C78.4 71.0667 81.2 68.6667 83.2 65.6C85.2 62.5333 86.2 58.8 86.2 54.4C86.2 48.2667 84.1333 43.6 80 40.4C76 37.2 70.1333 35.6 62.4 35.6C57.4667 35.6 52.8 36.2 48.4 37.4C44.1333 38.4667 39.4 40.5333 34.2 43.6C31.8 45.0667 29.4667 45.6667 27.2 45.4C25.0667 45.1333 23.2667 44.2667 21.8 42.8C20.3333 41.3333 19.3333 39.6 18.8 37.6C18.2667 35.4667 18.4 33.3333 19.2 31.2C20 28.9333 21.6667 27 24.2 25.4C29.9333 21.6667 36.2667 18.8667 43.2 17C50.1333 15 57.2667 14 64.6 14C74.3333 14 82.6667 15.5333 89.6 18.6C96.5333 21.5333 101.8 25.8 105.4 31.4C109.133 36.8667 111 43.5333 111 51.4C111 57 109.933 62.1333 107.8 66.8C105.667 71.3333 102.667 75.2 98.8 78.4C94.9333 81.6 90.2667 83.8667 84.8 85.2V82.8C94.4 84.4 101.867 88.4 107.2 94.8C112.533 101.067 115.2 108.933 115.2 118.4C115.2 126.667 113.133 133.867 109 140C104.867 146.133 99 150.867 91.4 154.2C83.8 157.4 74.7333 159 64.2 159Z" fill="#101549"/>
</g>
<defs>
<filter id="filter0_dddd_61_276" x="0.799805" y="0" width="134.4" height="175" filterUnits="userSpaceOnUse" color-interpolation-filters="sRGB">
<feFlood flood-opacity="0" result="BackgroundImageFix"/>
<feColorMatrix in="SourceAlpha" type="matrix" values="0 0 0 0 0 0 0 0 0 0 0 0 0 0 0 0 0 0 127 0" result="hardAlpha"/>
<feOffset dx="8" dy="4"/>
<feGaussianBlur stdDeviation="6"/>
<feComposite in2="hardAlpha" operator="out"/>
<feColorMatrix type="matrix" values="0 0 0 0 0.0431373 0 0 0 0 0.0509804 0 0 0 0 0.152941 0 0 0 0.25 0"/>
<feBlend mode="normal" in2="BackgroundImageFix" result="effect1_dropShadow_61_276"/>
<feColorMatrix in="SourceAlpha" type="matrix" values="0 0 0 0 0 0 0 0 0 0 0 0 0 0 0 0 0 0 127 0" result="hardAlpha"/>
<feOffset dx="1" dy="1"/>
<feGaussianBlur stdDeviation="1"/>
<feComposite in2="hardAlpha" operator="out"/>
<feColorMatrix type="matrix" values="0 0 0 0 0.0431373 0 0 0 0 0.0509804 0 0 0 0 0.152941 0 0 0 0.25 0"/>
<feBlend mode="normal" in2="effect1_dropShadow_61_276" result="effect2_dropShadow_61_276"/>
<feColorMatrix in="SourceAlpha" type="matrix" values="0 0 0 0 0 0 0 0 0 0 0 0 0 0 0 0 0 0 127 0" result="hardAlpha"/>
<feOffset dx="-2" dy="-2"/>
<feGaussianBlur stdDeviation="1"/>
<feComposite in2="hardAlpha" operator="out"/>
<feColorMatrix type="matrix" values="0 0 0 0 1 0 0 0 0 1 0 0 0 0 1 0 0 0 0.05 0"/>
<feBlend mode="normal" in2="effect2_dropShadow_61_276" result="effect3_dropShadow_61_276"/>
<feColorMatrix in="SourceAlpha" type="matrix" values="0 0 0 0 0 0 0 0 0 0 0 0 0 0 0 0 0 0 127 0" result="hardAlpha"/>
<feOffset dx="-6" dy="-6"/>
<feGaussianBlur stdDeviation="4"/>
<feComposite in2="hardAlpha" operator="out"/>
<feColorMatrix type="matrix" values="0 0 0 0 1 0 0 0 0 1 0 0 0 0 1 0 0 0 0.1 0"/>
<feBlend mode="normal" in2="effect3_dropShadow_61_276" result="effect4_dropShadow_61_276"/>
<feBlend mode="normal" in="SourceGraphic" in2="effect4_dropShadow_61_276" result="shape"/>
</filter>
</defs>
</svg>
