<svg width="145" height="175" viewBox="0 0 145 175" fill="none" xmlns="http://www.w3.org/2000/svg">
<g filter="url(#filter0_dddd_85_543)">
<path d="M90.6 158.6C86.6 158.6 83.4667 157.533 81.2 155.4C78.9333 153.133 77.8 149.933 77.8 145.8V130.2H28.4C24.2667 130.2 20.9333 129.333 18.4 127.6C16 125.867 14.8 123.133 14.8 119.4C14.8 117.267 15.3333 114.933 16.4 112.4C17.6 109.867 19.6667 106.533 22.6 102.4L77.4 23C79.2667 20.2 81.3333 18.0667 83.6 16.6C85.8667 15.1333 88.4667 14.4 91.4 14.4C94.8667 14.4 97.7333 15.4667 100 17.6C102.267 19.6 103.4 22.8 103.4 27.2V109H113.2C117.067 109 119.933 109.933 121.8 111.8C123.8 113.533 124.8 116.133 124.8 119.6C124.8 123.067 123.8 125.733 121.8 127.6C119.933 129.333 117.067 130.2 113.2 130.2H103.4V145.8C103.4 149.933 102.267 153.133 100 155.4C97.7333 157.533 94.6 158.6 90.6 158.6ZM77.8 109V46.6H83.6L36.4 115.8V109H77.8Z" fill="#101549"/>
</g>
<defs>
<filter id="filter0_dddd_85_543" x="0.799805" y="0.399902" width="144" height="174.2" filterUnits="userSpaceOnUse" color-interpolation-filters="sRGB">
<feFlood flood-opacity="0" result="BackgroundImageFix"/>
<feColorMatrix in="SourceAlpha" type="matrix" values="0 0 0 0 0 0 0 0 0 0 0 0 0 0 0 0 0 0 127 0" result="hardAlpha"/>
<feOffset dx="8" dy="4"/>
<feGaussianBlur stdDeviation="6"/>
<feComposite in2="hardAlpha" operator="out"/>
<feColorMatrix type="matrix" values="0 0 0 0 0.0431373 0 0 0 0 0.0509804 0 0 0 0 0.152941 0 0 0 0.25 0"/>
<feBlend mode="normal" in2="BackgroundImageFix" result="effect1_dropShadow_85_543"/>
<feColorMatrix in="SourceAlpha" type="matrix" values="0 0 0 0 0 0 0 0 0 0 0 0 0 0 0 0 0 0 127 0" result="hardAlpha"/>
<feOffset dx="1" dy="1"/>
<feGaussianBlur stdDeviation="1"/>
<feComposite in2="hardAlpha" operator="out"/>
<feColorMatrix type="matrix" values="0 0 0 0 0.0431373 0 0 0 0 0.0509804 0 0 0 0 0.152941 0 0 0 0.25 0"/>
<feBlend mode="normal" in2="effect1_dropShadow_85_543" result="effect2_dropShadow_85_543"/>
<feColorMatrix in="SourceAlpha" type="matrix" values="0 0 0 0 0 0 0 0 0 0 0 0 0 0 0 0 0 0 127 0" result="hardAlpha"/>
<feOffset dx="-2" dy="-2"/>
<feGaussianBlur stdDeviation="1"/>
<feComposite in2="hardAlpha" operator="out"/>
<feColorMatrix type="matrix" values="0 0 0 0 1 0 0 0 0 1 0 0 0 0 1 0 0 0 0.05 0"/>
<feBlend mode="normal" in2="effect2_dropShadow_85_543" result="effect3_dropShadow_85_543"/>
<feColorMatrix in="SourceAlpha" type="matrix" values="0 0 0 0 0 0 0 0 0 0 0 0 0 0 0 0 0 0 127 0" result="hardAlpha"/>
<feOffset dx="-6" dy="-6"/>
<feGaussianBlur stdDeviation="4"/>
<feComposite in2="hardAlpha" operator="out"/>
<feColorMatrix type="matrix" values="0 0 0 0 1 0 0 0 0 1 0 0 0 0 1 0 0 0 0.1 0"/>
<feBlend mode="normal" in2="effect3_dropShadow_85_543" result="effect4_dropShadow_85_543"/>
<feBlend mode="normal" in="SourceGraphic" in2="effect4_dropShadow_85_543" result="shape"/>
</filter>
</defs>
</svg>
