<svg width="200" height="200" viewBox="0 0 200 200" fill="none" xmlns="http://www.w3.org/2000/svg">
<path d="M199.989 99.9993C199.989 155.227 155.22 199.999 99.9947 199.999C44.7692 199.999 0 155.227 0 99.9993C0 44.7713 44.7692 0 99.9947 0C155.22 0 199.989 44.7713 199.989 99.9993Z" fill="#6AF13B" fill-opacity="0.1"/>
<path d="M174.883 100.003C174.883 141.364 141.354 174.893 99.9952 174.893C58.6361 174.893 25.1084 141.364 25.1084 100.003C25.1084 58.6416 58.6361 25.1123 99.9952 25.1123C141.354 25.1123 174.883 58.6416 174.883 100.003Z" stroke="#6AF13B" stroke-width="14.8" stroke-miterlimit="10"/>
<path d="M166.785 99.9969C166.785 136.886 136.882 166.791 99.9943 166.791C63.1067 166.791 33.2031 136.886 33.2031 99.9969C33.2031 63.1076 63.1067 33.2031 99.9943 33.2031C136.882 33.2031 166.785 63.1076 166.785 99.9969Z" fill="#6AF13B"/>
<path d="M21.4369 38.4805C21.5803 38.6154 21.4226 38.8465 21.2443 38.7631C19.6068 37.9968 16.5317 36.6628 15.4504 36.9074C14.3756 37.1505 12.1938 39.6495 11.0399 41.051C10.9143 41.2036 10.6722 41.061 10.7453 40.8773C11.3935 39.2499 12.4714 36.3006 12.2306 35.2359C11.9771 34.1152 9.50561 31.7382 8.26723 30.6036C8.12689 30.475 8.26617 30.247 8.44444 30.3137C9.99565 30.8938 13.1648 31.9932 14.2817 31.7405C15.4033 31.4868 17.8061 29.1118 18.951 27.9253C19.0826 27.789 19.3061 27.9332 19.2365 28.1095C18.6255 29.6574 17.4433 32.8751 17.6976 33.9992C17.9395 35.0691 20.1722 37.2907 21.4369 38.4805Z" fill="#6AF13B"/>
<path d="M199.611 118.134C199.851 118.224 199.778 118.58 199.522 118.569C197.173 118.472 192.814 118.414 191.639 119.25C190.471 120.082 189.107 124.175 188.426 126.436C188.352 126.682 187.99 126.632 187.985 126.375C187.946 124.097 187.76 120.017 186.937 118.861C186.07 117.643 181.912 116.031 179.856 115.291C179.624 115.208 179.676 114.864 179.924 114.855C182.076 114.772 186.43 114.501 187.644 113.637C188.862 112.77 190.553 108.714 191.332 106.716C191.421 106.486 191.762 106.547 191.767 106.794C191.811 108.958 192.007 113.412 192.876 114.633C193.703 115.795 197.497 117.341 199.611 118.134Z" fill="#6AF13B"/>
<path d="M166.09 161.328C166.26 161.31 166.322 161.546 166.166 161.615C164.731 162.255 162.105 163.516 161.65 164.365C161.198 165.21 161.598 168.065 161.862 169.621C161.891 169.79 161.66 169.868 161.581 169.715C160.88 168.364 159.556 165.977 158.72 165.53C157.84 165.058 154.872 165.329 153.422 165.497C153.258 165.516 153.187 165.295 153.332 165.216C154.596 164.527 157.122 163.071 157.591 162.193C158.063 161.312 157.87 158.382 157.742 156.955C157.727 156.791 157.949 156.726 158.026 156.872C158.695 158.154 160.136 160.762 161.019 161.234C161.859 161.684 164.589 161.482 166.09 161.328Z" fill="#6AF13B"/>
<path d="M176.09 14.995C176.296 14.8982 176.478 15.167 176.312 15.3234C174.785 16.7595 172.032 19.5013 171.833 20.7709C171.635 22.0329 173.393 25.453 174.408 27.2959C174.519 27.4966 174.262 27.6964 174.095 27.539C172.62 26.1441 169.904 23.7205 168.654 23.5242C167.338 23.3175 163.72 24.9626 161.968 25.811C161.769 25.9072 161.583 25.6595 161.731 25.496C163.02 24.0732 165.561 21.1297 165.767 19.8183C165.974 18.5013 164.444 14.8963 163.656 13.155C163.565 12.9549 163.816 12.7758 163.976 12.9262C165.382 14.247 168.342 16.898 169.662 17.1052C170.918 17.3025 174.267 15.8481 176.09 14.995Z" fill="#6AF13B"/>
<path d="M29.7466 154.602C29.9271 154.294 30.399 154.479 30.3235 154.828C29.6299 158.03 28.513 164.002 29.3812 165.814C30.2442 167.615 35.539 170.462 38.4804 171.936C38.8007 172.097 38.6464 172.582 38.2923 172.527C35.1557 172.038 29.5103 171.322 27.7264 172.177C25.8486 173.077 22.6454 178.402 21.1402 181.048C20.9696 181.348 20.5106 181.194 20.5565 180.852C20.956 177.877 21.6205 171.834 20.7237 169.962C19.8232 168.083 14.6583 164.795 12.1004 163.25C11.8064 163.073 11.9711 162.62 12.3105 162.672C15.2918 163.127 21.4535 163.918 23.337 163.016C25.1296 162.157 28.1544 157.316 29.7466 154.602Z" fill="#6AF13B"/>
<path d="M86.0002 119.599L69.6669 103.266C67.8469 101.446 64.9536 101.446 63.1336 103.266C61.3136 105.086 61.3136 107.979 63.1336 109.799L82.6869 129.353C84.5069 131.173 87.4469 131.173 89.2669 129.353L138.734 79.9325C140.554 78.1125 140.554 75.2192 138.734 73.3992C136.914 71.5792 134.02 71.5792 132.2 73.3992L86.0002 119.599Z" fill="white"/>
</svg>
