<svg width="16" height="16" viewBox="0 0 16 16" fill="none" xmlns="http://www.w3.org/2000/svg">
<path d="M7.99967 15.1673C4.04634 15.1673 0.833008 11.954 0.833008 8.00065C0.833008 4.04732 4.04634 0.833984 7.99967 0.833984C11.953 0.833984 15.1663 4.04732 15.1663 8.00065C15.1663 11.954 11.953 15.1673 7.99967 15.1673ZM7.99967 1.83398C4.59967 1.83398 1.83301 4.60065 1.83301 8.00065C1.83301 11.4007 4.59967 14.1673 7.99967 14.1673C11.3997 14.1673 14.1663 11.4007 14.1663 8.00065C14.1663 4.60065 11.3997 1.83398 7.99967 1.83398Z" fill="#3B4CF1"/>
<path d="M8 11.1673C7.72667 11.1673 7.5 10.9407 7.5 10.6673V7.33398C7.5 7.06065 7.72667 6.83398 8 6.83398C8.27333 6.83398 8.5 7.06065 8.5 7.33398V10.6673C8.5 10.9407 8.27333 11.1673 8 11.1673Z" fill="#3B4CF1"/>
<path d="M7.99967 5.99992C7.91301 5.99992 7.82634 5.97992 7.74634 5.94659C7.66634 5.91326 7.59301 5.86659 7.52634 5.80659C7.46634 5.73992 7.41967 5.67325 7.38634 5.58659C7.35301 5.50659 7.33301 5.41992 7.33301 5.33326C7.33301 5.24659 7.35301 5.15992 7.38634 5.07992C7.41967 4.99992 7.46634 4.92659 7.52634 4.85992C7.59301 4.79992 7.66634 4.75326 7.74634 4.71992C7.90634 4.65326 8.09301 4.65326 8.25301 4.71992C8.33301 4.75326 8.40634 4.79992 8.47301 4.85992C8.53301 4.92659 8.57967 4.99992 8.61301 5.07992C8.64634 5.15992 8.66634 5.24659 8.66634 5.33326C8.66634 5.41992 8.64634 5.50659 8.61301 5.58659C8.57967 5.67325 8.53301 5.73992 8.47301 5.80659C8.40634 5.86659 8.33301 5.91326 8.25301 5.94659C8.17301 5.97992 8.08634 5.99992 7.99967 5.99992Z" fill="#3B4CF1"/>
</svg>
