<svg width="80" height="80" viewBox="0 0 80 80" fill="none" xmlns="http://www.w3.org/2000/svg">
<path d="M50.8666 74.1667H29.1333C12.7666 74.1667 5.7666 67.1667 5.7666 50.8V50.3667C5.7666 35.5667 11.5999 28.4333 24.6666 27.2C25.9999 27.1 27.2666 28.1 27.3999 29.4667C27.5333 30.8333 26.5333 32.0667 25.1333 32.2C14.6666 33.1667 10.7666 38.1 10.7666 50.4V50.8333C10.7666 64.4 15.5666 69.2 29.1333 69.2H50.8666C64.4333 69.2 69.2333 64.4 69.2333 50.8333V50.4C69.2333 38.0333 65.2666 33.1 54.5999 32.2C53.2333 32.0667 52.1999 30.8667 52.3333 29.5C52.4666 28.1333 53.6333 27.1 55.0333 27.2333C68.2999 28.3667 74.2333 35.5333 74.2333 50.4333V50.8667C74.2333 67.1667 67.2333 74.1667 50.8666 74.1667Z" fill="#3B4CF1"/>
<path d="M40 52.5C38.6333 52.5 37.5 51.3667 37.5 50V12.0667C37.5 10.7 38.6333 9.56668 40 9.56668C41.3667 9.56668 42.5 10.7 42.5 12.0667V50C42.5 51.3667 41.3667 52.5 40 52.5Z" fill="#3B4CF1"/>
<path d="M51.1668 22C50.5335 22 49.9001 21.7667 49.4001 21.2667L40.0001 11.8667L30.6001 21.2667C29.6335 22.2333 28.0335 22.2333 27.0668 21.2667C26.1001 20.3 26.1001 18.7 27.0668 17.7333L38.2335 6.56667C39.2001 5.60001 40.8001 5.60001 41.7668 6.56667L52.9335 17.7333C53.9001 18.7 53.9001 20.3 52.9335 21.2667C52.4668 21.7667 51.8001 22 51.1668 22Z" fill="#3B4CF1"/>
</svg>
